<svg width="42" height="42" viewBox="0 0 42 42" fill="none" xmlns="http://www.w3.org/2000/svg">
<path fill-rule="evenodd" clip-rule="evenodd" d="M20.7415 6.30747L15.4847 13.5782L16.9859 15.8059L20.7254 9.86539L24.5345 15.8059L26.0249 13.5782L20.7254 6.30747H20.7415ZM29.6683 11.5322C29.7324 11.623 30.3842 12.6006 32.6333 15.6296C32.8202 15.8647 32.9912 16.1051 33.1675 16.3455L32.099 18.7281C31.5004 17.5898 30.6707 16.589 29.663 15.7899C28.5945 16.5806 26.6072 18.6587 25.8112 22.7348C25.7838 22.8684 25.7695 23.0044 25.7685 23.1408V41.1975H23.8506V22.9645C24.0433 20.2941 25.0251 17.7411 26.6713 15.6296C28.9632 12.622 29.6149 11.623 29.663 11.5322H29.6683ZM12.3008 15.8059C11.293 16.6051 10.4633 17.6058 9.86471 18.7442L8.84969 16.3615C9.00995 16.1211 9.1809 15.8807 9.38391 15.6457C11.6544 12.638 12.3061 11.655 12.3595 11.5482C12.3969 11.655 13.0594 12.6166 15.3298 15.6457C16.9635 17.7558 17.9357 20.3025 18.1238 22.9645V41.1975H16.1632V23.1675C16.1631 23.0316 16.1524 22.8958 16.1311 22.7615C15.3725 18.6587 13.3425 16.5806 12.3008 15.8166V15.8059ZM27.6223 27.0246V41.1922H29.5829V23.1622C29.5818 23.0259 29.5943 22.8899 29.6203 22.7562C29.7416 22.0935 29.9094 21.4401 30.1224 20.8009L28.5198 19.054C28.4183 19.3051 28.3274 19.5455 28.2473 19.7806C27.8716 20.8106 27.6519 21.8909 27.5955 22.9859V27.0246H27.6223ZM14.3362 22.9645C14.2965 21.8705 14.0875 20.7892 13.7165 19.7592C13.6363 19.5241 13.5455 19.2784 13.4493 19.0326L11.8467 20.7742C12.0598 21.4206 12.2276 22.0811 12.3488 22.7508C12.3745 22.8828 12.387 23.017 12.3862 23.1515V41.1922H14.3148V22.9645H14.3362ZM20.7468 41.2029H19.6784V16.1906C19.6725 16.1396 19.6521 16.0914 19.6196 16.0517L19.2937 15.6991C19.2448 15.6429 19.2182 15.5706 19.2189 15.4961C19.2185 15.4232 19.2451 15.3528 19.2937 15.2984L20.7735 13.4126L22.264 15.2984C22.3126 15.3528 22.3392 15.4232 22.3388 15.4961C22.3396 15.5706 22.3129 15.6429 22.264 15.6991L21.9648 16.0196C21.9325 16.0574 21.912 16.1038 21.9061 16.1532V41.1975L20.7468 41.2029ZM31.4954 41.2029H33.456C33.456 39.3598 33.5414 33.9268 33.5414 27.0193C33.5414 20.1118 38.3227 15.3786 40.7267 13.8827L41.6135 10.1432L37.3665 13.8827C35.5333 15.5453 34.0708 17.5752 33.0739 19.8404C32.0771 22.1055 31.5684 24.5552 31.5808 27.03L31.5328 41.1975L31.4954 41.2029ZM10.447 27.0193C10.4559 24.5451 9.94397 22.0968 8.94441 19.8335C7.94485 17.5702 6.48008 15.5427 4.64536 13.8827L0.371582 10.1432L1.25839 13.8827C3.64102 15.3839 8.44368 20.1011 8.44368 27.0139C8.44368 33.9268 8.49176 39.3545 8.51847 41.2029H10.4791L10.4363 27.0353L10.447 27.0193ZM35.3525 41.2136L35.5234 27.0246C35.7424 22.4623 36.7949 19.257 40.4062 16.1265L40.4489 16.1585C39.0439 19.7806 37.703 20.3415 37.703 27.0246L37.4893 41.2136H35.3525ZM6.435 27.0193L6.59527 41.2082H4.49578L4.27675 27.0193C4.27675 20.3361 2.91448 19.7752 1.50413 16.1532L1.55221 16.1211C5.12616 19.2517 6.21063 22.4517 6.435 27.0193ZM20.5278 0.623346L18.7969 2.35423C18.7664 2.38416 18.7421 2.41991 18.7256 2.45936C18.7091 2.49882 18.7006 2.54117 18.7007 2.58394C18.6999 2.62761 18.708 2.67098 18.7246 2.7114C18.7411 2.75182 18.7657 2.78844 18.7969 2.819L20.5278 4.55522C20.5917 4.61432 20.6758 4.6468 20.7628 4.64604C20.8484 4.64709 20.9309 4.61447 20.9926 4.55522L22.7234 2.819C22.7532 2.78813 22.7768 2.75187 22.7929 2.71215C22.8004 2.66975 22.8004 2.62635 22.7929 2.58394C22.801 2.54338 22.801 2.50163 22.7929 2.46107C22.7782 2.42064 22.7544 2.3841 22.7234 2.35423L20.9926 0.623346C20.9612 0.594169 20.9251 0.570668 20.8857 0.553897C20.8452 0.545836 20.8034 0.545836 20.7628 0.553897C20.7189 0.555076 20.6754 0.564123 20.6346 0.580608C20.596 0.598682 20.56 0.622056 20.5278 0.650057V0.623346ZM29.476 5.58627L27.7398 7.32249C27.7095 7.35291 27.6858 7.3893 27.6703 7.42934C27.6526 7.46787 27.6434 7.50979 27.6434 7.55221C27.6434 7.59463 27.6526 7.63655 27.6703 7.67508C27.6858 7.71512 27.7095 7.75151 27.7398 7.78192L29.476 9.5128C29.5057 9.54529 29.5422 9.57083 29.5829 9.58759C29.6214 9.60533 29.6633 9.61452 29.7057 9.61452C29.7481 9.61452 29.7901 9.60533 29.8286 9.58759C29.8693 9.57083 29.9058 9.54529 29.9354 9.5128L31.6717 7.78192C31.7299 7.71959 31.7623 7.63749 31.7623 7.55221C31.7623 7.46692 31.7299 7.38482 31.6717 7.32249L29.9141 5.58627C29.8845 5.55522 29.8488 5.53065 29.8093 5.5141C29.7698 5.49754 29.7272 5.48938 29.6844 5.49011C29.6423 5.48946 29.6006 5.49769 29.5619 5.51426C29.5233 5.53083 29.4885 5.55537 29.46 5.58627H29.476ZM12.5091 5.58627L14.2453 7.32249C14.3035 7.38482 14.3359 7.46692 14.3359 7.55221C14.3359 7.63749 14.3035 7.71959 14.2453 7.78192L12.5091 9.5128C12.4794 9.54529 12.443 9.57083 12.4023 9.58759C12.3637 9.60533 12.3218 9.61452 12.2794 9.61452C12.237 9.61452 12.1951 9.60533 12.1565 9.58759C12.1166 9.57214 12.0816 9.54632 12.055 9.5128L10.3188 7.78192C10.2881 7.75206 10.2637 7.71634 10.2471 7.67688C10.2304 7.63743 10.2218 7.59504 10.2218 7.55221C10.2218 7.50938 10.2304 7.46699 10.2471 7.42753C10.2637 7.38808 10.2881 7.35236 10.3188 7.32249L12.055 5.58627C12.0836 5.55537 12.1183 5.53083 12.157 5.51426C12.1956 5.49769 12.2373 5.48946 12.2794 5.49011C12.3223 5.48938 12.3648 5.49754 12.4043 5.5141C12.4439 5.53065 12.4796 5.55522 12.5091 5.58627Z" fill="url(#paint0_linear_2_30204)"/>
<defs>
<linearGradient id="paint0_linear_2_30204" x1="0.371582" y1="23.0266" x2="41.6156" y2="23.1549" gradientUnits="userSpaceOnUse">
<stop stop-color="#F4CA87"/>
<stop offset="0.22" stop-color="#F9DBB7"/>
<stop offset="0.58" stop-color="#CDA553"/>
<stop offset="0.93" stop-color="#E3C085"/>
<stop offset="0.97" stop-color="#B2923B"/>
</linearGradient>
</defs>
</svg>
